  0
SECTION
  2
HEADER
  9
$ACADVER
  1
AC1003
  9
$EXTMIN
 10
1
 20
2.56732283464567
  9
$EXTMAX
 10
8.75521216458268
 20
1
  9
$INSUNITS
 70
1
  9
$INSBASE
 10
4.87760608229134
 20
1.78366141732283
999
Created with OMAX Layout for Windows. (www.omax.com) 7/31/2014
  0
ENDSEC
  0
SECTION
  2
TABLES
  0
TABLE
  2
LAYER
 70
    10
  0
LAYER
  2
0
 70
     0
 62
     7
  6
CONTINUOUS
  0
LAYER
  2
1
 70
     0
 62
     7
  6
CONTINUOUS
  0
LAYER
  2
2
 70
     0
 62
     7
  6
CONTINUOUS
  0
LAYER
  2
3
 70
     0
 62
     7
  6
CONTINUOUS
  0
LAYER
  2
4
 70
     0
 62
     7
  6
CONTINUOUS
  0
LAYER
  2
5
 70
     0
 62
     7
  6
CONTINUOUS
  0
LAYER
  2
6
 70
     0
 62
     7
  6
CONTINUOUS
  0
LAYER
  2
7
 70
     0
 62
     7
  6
CONTINUOUS
  0
LAYER
  2
8
 70
     0
 62
     7
  6
CONTINUOUS
  0
LAYER
  2
9
 70
     0
 62
     7
  6
CONTINUOUS
  0
LAYER
  2
10
 70
     0
 62
     7
  6
CONTINUOUS
  0
LAYER
  2
11
 70
     0
 62
     7
  6
CONTINUOUS
  0
LAYER
  2
12
 70
     0
 62
     7
  6
CONTINUOUS
  0
LAYER
  2
13
 70
     0
 62
     7
  6
CONTINUOUS
  0
LAYER
  2
14
 70
     0
 62
     7
  6
CONTINUOUS
  0
LAYER
  2
15
 70
     0
 62
     7
  6
CONTINUOUS
  0
LAYER
  2
16
 70
     0
 62
     7
  6
CONTINUOUS
  0
LAYER
  2
17
 70
     0
 62
     7
  6
CONTINUOUS
  0
LAYER
  2
18
 70
     0
 62
     7
  6
CONTINUOUS
  0
LAYER
  2
19
 70
     0
 62
     7
  6
CONTINUOUS
  0
LAYER
  2
20
 70
     0
 62
     7
  6
CONTINUOUS
  0
LAYER
  2
21
 70
     0
 62
     7
  6
CONTINUOUS
  0
LAYER
  2
22
 70
     0
 62
     7
  6
CONTINUOUS
  0
LAYER
  2
23
 70
     0
 62
     7
  6
CONTINUOUS
  0
LAYER
  2
24
 70
     0
 62
     7
  6
CONTINUOUS
  0
LAYER
  2
25
 70
     0
 62
     7
  6
CONTINUOUS
  0
LAYER
  2
26
 70
     0
 62
     7
  6
CONTINUOUS
  0
LAYER
  2
27
 70
     0
 62
     7
  6
CONTINUOUS
  0
LAYER
  2
28
 70
     0
 62
     7
  6
CONTINUOUS
  0
LAYER
  2
29
 70
     0
 62
     7
  6
CONTINUOUS
  0
LAYER
  2
30
 70
     0
 62
     7
  6
CONTINUOUS
  0
LAYER
  2
31
 70
     0
 62
     7
  6
CONTINUOUS
  0
ENDTAB
  0
ENDSEC
  0
SECTION
  2
ENTITIES
  0
LINE
  8
0
  6
CONTINUOUS
 62
0
 10
1
 20
2.56732283464567
 30
0.0
 11
1.35904989655009
 21
2.10731611121345
 31
0.0
  0
LINE
  8
0
  6
CONTINUOUS
 62
0
 10
1.45780845008066
 20
2.08988545909795
 30
0.0
 11
4.32302588582042
 21
1.54802385204939
 31
0.0
  0
LINE
  8
0
  6
CONTINUOUS
 62
0
 10
4.35006477756693
 20
1.57041650634613
 30
0.0
 11
5.06598426504938
 21
2.06107625946304
 31
0.0
  0
LINE
  8
0
  6
CONTINUOUS
 62
0
 10
5.08837691934612
 20
2.03403736771652
 30
0.0
 11
5.7017305166684
 21
1.15492650808698
 31
0.0
  0
LINE
  8
0
  6
CONTINUOUS
 62
0
 10
5.72205243511819
 20
1.18355433133383
 30
0.0
 11
6.78531465978134
 21
2.11512586263027
 31
0.0
  0
LINE
  8
0
  6
CONTINUOUS
 62
0
 10
6.78967659851788
 20
2.11512586263027
 30
0.0
 11
7.18538572036795
 21
2.11508446026908
 31
0.0
  0
LINE
  8
0
  6
CONTINUOUS
 62
0
 10
7.19164510245488
 20
2.07162586263027
 30
0.0
 11
7.18841486161692
 21
1.24042623654364
 31
0.0
  0
LINE
  8
0
  6
CONTINUOUS
 62
0
 10
7.19059583098519
 20
1.24420378629923
 30
0.0
 11
7.58925166765535
 21
2.11512586263027
 31
0.0
  0
LINE
  8
0
  6
CONTINUOUS
 62
0
 10
7.59361360639189
 20
2.11512586263027
 30
0.0
 11
8.36020235214964
 21
2.11524127840039
 31
0.0
  0
LINE
  8
0
  6
CONTINUOUS
 62
0
 10
8.42467701645148
 20
2.19205336854113
 30
0.0
 11
8.70521216458268
 21
2.56732283464567
 31
0.0
  0
ARC
  8
3
  6
CONTINUOUS
 62
3
 10
1.35433070876817
 20
2.11535433069461
 30
0.0
 40
0.156496062885375
 50
344.999999994853
 51
5.14435477370901E-9
  0
ARC
  8
3
  6
CONTINUOUS
 62
3
 10
1.35433070866142
 20
2.11535433070866
 30
0.0
 40
0.156496062992126
 50
359.999999999998
 51
180
  0
ARC
  8
3
  6
CONTINUOUS
 62
3
 10
1.3543307086605
 20
2.11535433070163
 30
0.0
 40
0.156496062991201
 50
179.999999997426
 51
345.00000000257
  0
ARC
  8
3
  6
CONTINUOUS
 62
3
 10
4.32111001929819
 20
1.55118110236601
 30
0.0
 40
0.0846456692903198
 50
29.9999999974265
 51
180.000000002572
  0
ARC
  8
3
  6
CONTINUOUS
 62
3
 10
4.32111001929921
 20
1.5511811023622
 30
0.0
 40
0.084645669291338
 50
179.999999999998
 51
359.999999999998
  0
ARC
  8
3
  6
CONTINUOUS
 62
3
 10
4.32111001932757
 20
1.55118110236981
 30
0.0
 40
0.0846456692629739
 50
359.999999994854
 51
30.0000000051431
  0
ARC
  8
3
  6
CONTINUOUS
 62
3
 10
5.06914151537537
 20
2.06299212597665
 30
0.0
 40
0.0846456692781728
 50
299.999999994853
 51
5.14441997507998E-9
  0
ARC
  8
3
  6
CONTINUOUS
 62
3
 10
5.0691415153622
 20
2.06299212598425
 30
0.0
 40
0.0846456692913389
 50
359.999999999998
 51
180
  0
ARC
  8
3
  6
CONTINUOUS
 62
3
 10
5.06914151536001
 20
2.06299212598045
 30
0.0
 40
0.0846456692891452
 50
179.999999997426
 51
300.000000002571
  0
ARC
  8
3
  6
CONTINUOUS
 62
3
 10
5.69906277520314
 20
1.15748031496443
 30
0.0
 40
0.0846456692897636
 50
44.9999999974266
 51
180.000000002572
  0
ARC
  8
3
  6
CONTINUOUS
 62
3
 10
5.69906277520472
 20
1.15748031496063
 30
0.0
 40
0.084645669291338
 50
179.999999999998
 51
359.999999999998
  0
ARC
  8
3
  6
CONTINUOUS
 62
3
 10
5.69906277522307
 20
1.15748031496823
 30
0.0
 40
0.0846456692729895
 50
359.999999994854
 51
45.0000000051439
  0
ARC
  8
3
  6
CONTINUOUS
 62
3
 10
6.78749562915298
 20
2.11517345154781
 30
0.0
 40
0.0499999999966325
 50
269.99999999614
 51
3.85748485653812E-9
  0
ARC
  8
3
  6
CONTINUOUS
 62
3
 10
6.78749562914961
 20
2.11517345155118
 30
0.0
 40
0.0499999999999998
 50
359.999999999998
 51
180
  0
ARC
  8
3
  6
CONTINUOUS
 62
3
 10
6.78749562914624
 20
2.11517345154781
 30
0.0
 40
0.0499999999966325
 50
179.99999999614
 51
270.000000003857
  0
ARC
  8
3
  6
CONTINUOUS
 62
3
 10
7.18946413309291
 20
2.11517345154488
 30
0.0
 40
0.0934999999937027
 50
269.99999999614
 51
3.85741488433513E-9
  0
ARC
  8
3
  6
CONTINUOUS
 62
3
 10
7.18946413308661
 20
2.11517345155118
 30
0.0
 40
0.0934999999999997
 50
359.999999999998
 51
180
  0
ARC
  8
3
  6
CONTINUOUS
 62
3
 10
7.18946413308031
 20
2.11517345154488
 30
0.0
 40
0.0934999999937027
 50
179.99999999614
 51
270.000000003857
  0
ARC
  8
3
  6
CONTINUOUS
 62
3
 10
7.18946413310337
 20
1.2423388058774
 30
0.0
 40
0.0499999999832428
 50
329.999999994852
 51
5.14360257252684E-9
  0
ARC
  8
3
  6
CONTINUOUS
 62
3
 10
7.18946413308661
 20
1.24233880588189
 30
0.0
 40
0.0500000000000007
 50
359.999999999998
 51
180
  0
ARC
  8
3
  6
CONTINUOUS
 62
3
 10
7.18946413308601
 20
1.24233880587965
 30
0.0
 40
0.0499999999993992
 50
179.999999997426
 51
330.00000000257
  0
ARC
  8
3
  6
CONTINUOUS
 62
3
 10
7.59143263702699
 20
2.11517345154781
 30
0.0
 40
0.0499999999966343
 50
269.99999999614
 51
3.85748485653812E-9
  0
ARC
  8
3
  6
CONTINUOUS
 62
3
 10
7.59143263702362
 20
2.11517345155118
 30
0.0
 40
0.0500000000000016
 50
359.999999999998
 51
180
  0
ARC
  8
3
  6
CONTINUOUS
 62
3
 10
7.59143263702025
 20
2.11517345154781
 30
0.0
 40
0.0499999999966343
 50
179.99999999614
 51
270.000000003857
  0
ARC
  8
3
  6
CONTINUOUS
 62
3
 10
8.35088145591835
 20
2.11517345155821
 30
0.0
 40
0.156496062989215
 50
44.9999999974265
 51
180.000000002572
  0
ARC
  8
3
  6
CONTINUOUS
 62
3
 10
8.35088145592126
 20
2.11517345155118
 30
0.0
 40
0.156496062992126
 50
179.999999999998
 51
359.999999999998
  0
ARC
  8
3
  6
CONTINUOUS
 62
3
 10
8.35088145595518
 20
2.11517345156523
 30
0.0
 40
0.156496062958203
 50
359.999999994854
 51
45.0000000051434
  0
LINE
  8
3
  6
CONTINUOUS
 62
3
 10
8.70521216458268
 20
2.41732283464567
 30
0.0
 11
8.70521216458268
 21
1
 31
0.0
  0
LINE
  8
3
  6
CONTINUOUS
 62
3
 10
8.70521216458268
 20
1
 30
0.0
 11
1
 21
1
 31
0.0
  0
LINE
  8
3
  6
CONTINUOUS
 62
3
 10
1
 20
1
 30
0.0
 11
1
 21
2.41732283464567
 31
0.0
  0
LINE
  8
3
  6
CONTINUOUS
 62
3
 10
1
 20
2.41732283464567
 30
0.0
 11
8.70521216458268
 21
2.41732283464567
 31
0.0
  0
LINE
  8
9
  6
CONTINUOUS
 62
9
 10
1.35904989655009
 20
2.10731611121345
 30
0.0
 11
1.50549429761807
 21
2.07485016912273
 31
0.0
  0
LINE
  8
9
  6
CONTINUOUS
 62
9
 10
1.50549429761807
 20
2.07485016912273
 30
0.0
 11
1.45780845008066
 21
2.08988545909795
 31
0.0
  0
LINE
  8
9
  6
CONTINUOUS
 62
9
 10
4.32302588582042
 20
1.54802385204939
 30
0.0
 11
4.39441531922585
 21
1.59350393700788
 31
0.0
  0
LINE
  8
9
  6
CONTINUOUS
 62
9
 10
4.39441531922585
 20
1.59350393700788
 30
0.0
 11
4.35006477756693
 21
1.57041650634613
 31
0.0
  0
LINE
  8
9
  6
CONTINUOUS
 62
9
 10
5.06598426504938
 20
2.06107625946304
 30
0.0
 11
5.11146435000787
 21
1.98968682605761
 31
0.0
  0
LINE
  8
9
  6
CONTINUOUS
 62
9
 10
5.11146435000787
 20
1.98968682605761
 30
0.0
 11
5.08837691934612
 21
2.03403736771652
 31
0.0
  0
LINE
  8
9
  6
CONTINUOUS
 62
9
 10
5.7017305166684
 20
1.15492650808698
 30
0.0
 11
5.7589163019587
 21
1.21733384171461
 31
0.0
  0
LINE
  8
9
  6
CONTINUOUS
 62
9
 10
5.7589163019587
 20
1.21733384171461
 30
0.0
 11
5.72205243511819
 21
1.18355433133383
 31
0.0
  0
LINE
  8
9
  6
CONTINUOUS
 62
9
 10
6.78531465978134
 20
2.11512586263027
 30
0.0
 11
6.78749562914961
 21
2.06517345155118
 31
0.0
  0
LINE
  8
9
  6
CONTINUOUS
 62
9
 10
6.78749562914961
 20
2.06517345155118
 30
0.0
 11
6.78967659851788
 21
2.11512586263027
 31
0.0
  0
LINE
  8
9
  6
CONTINUOUS
 62
9
 10
7.18538572036795
 20
2.11508446026908
 30
0.0
 11
7.18946413308661
 21
2.02167345155118
 31
0.0
  0
LINE
  8
9
  6
CONTINUOUS
 62
9
 10
7.18946413308661
 20
2.02167345155118
 30
0.0
 11
7.19164510245488
 21
2.07162586263027
 31
0.0
  0
LINE
  8
9
  6
CONTINUOUS
 62
9
 10
7.18841486161692
 20
1.24042623654364
 30
0.0
 11
7.23276540327583
 21
1.21733880588189
 31
0.0
  0
LINE
  8
9
  6
CONTINUOUS
 62
9
 10
7.23276540327583
 20
1.21733880588189
 30
0.0
 11
7.19059583098519
 21
1.24420378629923
 31
0.0
  0
LINE
  8
9
  6
CONTINUOUS
 62
9
 10
7.58925166765535
 20
2.11512586263027
 30
0.0
 11
7.59143263702362
 21
2.06517345155118
 31
0.0
  0
LINE
  8
9
  6
CONTINUOUS
 62
9
 10
7.59143263702362
 20
2.06517345155118
 30
0.0
 11
7.59361360639189
 21
2.11512586263027
 31
0.0
  0
LINE
  8
9
  6
CONTINUOUS
 62
9
 10
8.36020235214964
 20
2.11524127840039
 30
0.0
 11
8.46154088329199
 21
2.22583287892191
 31
0.0
  0
LINE
  8
9
  6
CONTINUOUS
 62
9
 10
8.46154088329199
 20
2.22583287892191
 30
0.0
 11
8.42467701645148
 21
2.19205336854113
 31
0.0
  0
LINE
  8
9
  6
CONTINUOUS
 62
9
 10
8.70521216458268
 20
2.56732283464567
 30
0.0
 11
8.70521216458268
 21
2.41732283464567
 31
0.0
  0
LINE
  8
9
  6
CONTINUOUS
 62
9
 10
8.70521216458268
 20
2.41732283464567
 30
0.0
 11
8.75521216458268
 21
2.41732283464567
 31
0.0
  0
ENDSEC
  0
EOF
